<svg width="16" height="15" viewBox="0 0 16 15" fill="none" xmlns="http://www.w3.org/2000/svg">
<path fill-rule="evenodd" clip-rule="evenodd" d="M5.95797 12.5247L8.3341 12.8943L11.3967 11.099L14.1424 7.4028V3.337L11.3967 1.3833L7.96448 2.01694L4.74352 1.06647L2.10337 2.01694L1.1001 4.76267L1.52255 7.4028L2.10337 9.14533L5.95797 12.5247V12.5247Z" fill="#F02756" stroke="#F02756"/>
<path fill-rule="evenodd" clip-rule="evenodd" d="M7.79619 1.05113C6.84602 0.400606 5.72939 0.0358446 4.57842 0C2.32597 0 0.566927 1.56599 0.116431 3.99004C-0.527119 7.31506 1.44644 11.7127 7.3028 14.0295C7.62584 14.1618 7.98798 14.1618 8.31103 14.0295C14.1459 11.6698 16.098 7.27217 15.4759 3.99004C14.9825 1.58743 13.2449 0.0214474 10.9925 0.0214474C9.85125 0.0561617 8.7431 0.413138 7.79619 1.05113V1.05113ZM4.57839 1.71616C5.41503 1.71616 6.35891 2.08083 7.28134 2.76729C7.58644 2.99612 8.00594 2.99612 8.31103 2.76729C9.23347 2.08083 10.1773 1.71616 10.9925 1.71616C12.3869 1.71616 13.4595 2.70294 13.7813 4.29037C14.2747 6.90749 12.6229 10.3827 7.79619 12.3992C2.96951 10.4256 1.29626 6.92894 1.78966 4.31183C2.08997 2.70294 3.16257 1.71616 4.57839 1.71616V1.71616Z" fill="#F02756"/>
</svg>
