<svg width="18" height="20" viewBox="0 0 18 20" fill="none" xmlns="http://www.w3.org/2000/svg">
<path fill-rule="evenodd" clip-rule="evenodd" d="M15.8464 6.63486V15.3311C15.8464 16.4261 15.3955 17.4246 14.6547 18.1654C13.9461 18.874 12.9155 19.3249 11.8204 19.3249H5.76528C4.67021 19.3249 3.63954 18.874 2.93095 18.1654C2.19017 17.4246 1.73926 16.4261 1.73926 15.3311V6.63486C1.73926 6.57049 1.73926 6.47385 1.77146 6.3772C1.77146 6.28058 1.77146 6.21615 1.77146 6.11954C1.83586 5.79746 2.09355 5.57205 2.41564 5.57205H15.1701C15.4921 5.57205 15.782 5.82968 15.8142 6.15179C15.8142 6.21615 15.8142 6.28058 15.8142 6.3772C15.8464 6.47385 15.8464 6.57049 15.8464 6.63486V6.63486ZM3.02759 6.86035V15.3311C3.02759 16.0719 3.34967 16.7483 3.83278 17.2314C4.3159 17.7467 5.02449 18.0366 5.76528 18.0366H11.8204C12.5612 18.0366 13.2698 17.7467 13.7529 17.2314C14.236 16.7483 14.5581 16.0719 14.5581 15.3311V6.86035H3.02759V6.86035Z" fill="white"/>
<path fill-rule="evenodd" clip-rule="evenodd" d="M15.9431 3.02762C16.8127 3.80062 17.4246 4.8957 17.5857 6.11961C17.6179 6.47391 17.3602 6.79599 17.0059 6.86041H0.644157C0.289892 6.86041 0 6.57053 0 6.21623C0 6.15182 0 6.11961 0.0322043 6.0874C0.193261 4.86349 0.772974 3.80062 1.67482 3.02762C2.54444 2.25461 3.67175 1.80371 4.92784 1.80371H12.6578C13.9139 1.80371 15.0734 2.25461 15.9431 3.02762V3.02762ZM2.51209 3.99386C2.02895 4.41256 1.67465 4.96011 1.44922 5.57205H16.1361C15.9107 4.96011 15.5564 4.41256 15.0733 3.99386C14.4291 3.44631 13.5917 3.09198 12.6577 3.09198H4.92768C3.99365 3.09198 3.15625 3.44631 2.51209 3.99386V3.99386Z" fill="white"/>
<path fill-rule="evenodd" clip-rule="evenodd" d="M4.76685 8.11649C5.12116 8.11649 5.41098 8.40634 5.41098 8.76062V16.1363C5.41098 16.4906 5.12116 16.7805 4.76685 16.7805C4.41257 16.7805 4.12268 16.4906 4.12268 16.1363V8.76062C4.12268 8.40634 4.41257 8.11649 4.76685 8.11649V8.11649Z" fill="white"/>
<path fill-rule="evenodd" clip-rule="evenodd" d="M8.79282 8.11649C9.14716 8.11649 9.43701 8.40634 9.43701 8.76062V16.1363C9.43701 16.4906 9.14716 16.7805 8.79282 16.7805C8.43857 16.7805 8.14868 16.4906 8.14868 16.1363V8.76062C8.14868 8.40634 8.43857 8.11649 8.79282 8.11649V8.11649Z" fill="white"/>
<path fill-rule="evenodd" clip-rule="evenodd" d="M12.8188 8.11649C13.1731 8.11649 13.463 8.40634 13.463 8.76062V16.1363C13.463 16.4906 13.1731 16.7805 12.8188 16.7805C12.4645 16.7805 12.1747 16.4906 12.1747 16.1363V8.76062C12.1747 8.40634 12.4645 8.11649 12.8188 8.11649V8.11649Z" fill="white"/>
<path fill-rule="evenodd" clip-rule="evenodd" d="M10.3387 1.546C10.3387 1.96471 10.1777 2.3512 9.88785 2.64107C9.59794 2.89874 9.21147 3.09201 8.79274 3.09201C8.37407 3.09201 7.9876 2.89874 7.69772 2.64107C7.40783 2.3512 7.24683 1.96471 7.24683 1.546C7.24683 1.12729 7.40783 0.740781 7.69772 0.450914C7.9876 0.161035 8.37407 0 8.79274 0C9.21147 0 9.59794 0.161035 9.88785 0.450914C10.1777 0.740781 10.3387 1.12729 10.3387 1.546V1.546ZM8.59957 1.35277C8.56738 1.41719 8.53516 1.48161 8.53516 1.54602C8.53516 1.61044 8.56738 1.67486 8.59957 1.73926C8.66402 1.77148 8.72837 1.80368 8.79276 1.80368C8.8572 1.80368 8.92158 1.77148 8.98603 1.73926C9.01822 1.67486 9.05042 1.61044 9.05042 1.54602C9.05042 1.48161 9.01822 1.41719 8.98603 1.35277C8.92158 1.32056 8.8572 1.28836 8.79276 1.28836C8.72837 1.28836 8.66402 1.32056 8.59957 1.35277V1.35277Z" fill="white"/>
</svg>
